<svg xmlns="http://www.w3.org/2000/svg" width="42" height="42" viewBox="0 0 42 42">
    <g fill="none" fill-rule="evenodd">
        <path fill="#000" fill-opacity="0" d="M0 42L42 42 42 0 0 0z"/>
        <g fill="#DA3740">
            <path d="M2.486 22.5h-1c-.276 0-.5.224-.5.5s.224.5.5.5h1c.276 0 .5-.224.5-.5s-.224-.5-.5-.5M5.486 22.5c-.279 0-.5.221-.5.49 0 .281.221.51.5.51.271 0 .5-.229.5-.51 0-.269-.229-.49-.5-.49" transform="translate(4 3)"/>
            <path d="M11 35V23.5h3.486c.277 0 .5-.224.5-.5s-.223-.5-.5-.5H11V19h3.496c.271 0 .49-.23.49-.5 0-.28-.219-.5-.49-.5H11v-3.5h3.486c.277 0 .5-.224.5-.5s-.223-.5-.5-.5H11V1h11v34H11zm21.947-15.609c-.861 0-1.636.544-1.93 1.352-.095.26.039.547.298.641.262.095.548-.039.641-.299.151-.415.55-.694.991-.694.58 0 1.053.472 1.053 1.053 0 .58-.473 1.053-1.053 1.053H23V19h5.486c.277 0 .5-.224.5-.5s-.223-.5-.5-.5H23v-3.501h5.934c1.131 0 2.052-.921 2.052-2.054 0-1.132-.921-2.052-2.052-2.052-.862 0-1.638.544-1.931 1.352-.095.26.04.547.299.641.26.094.547-.039.64-.299.151-.415.549-.694.992-.694.58 0 1.052.472 1.052 1.052 0 .581-.472 1.054-1.052 1.054H23V.5c0-.276-.224-.5-.5-.5h-12c-.276 0-.5.224-.5.5v13h-.5c-.276 0-.5.224-.5.5s.224.5.5.5h.5V18H4.477c-.271 0-.491.22-.491.5 0 .27.22.5.491.5H10v3.5H8.486c-.276 0-.5.224-.5.5s.224.5.5.5H10V35H8.993c-.276 0-.5.224-.5.5s.224.5.5.5h16c.277 0 .5-.224.5-.5s-.223-.5-.5-.5H23V23.497h9.947c1.132 0 2.053-.921 2.053-2.053s-.921-2.053-2.053-2.053zM1.977 18.5c0-.28-.22-.5-.49-.5-.281 0-.5.22-.5.5 0 .27.219.5.5.5.27 0 .49-.23.49-.5" transform="translate(4 3)"/>
            <path d="M6.5 14.499c.27 0 .5-.22.5-.5s-.23-.5-.5-.5c-.28 0-.5.22-.5.5s.22.5.5.5M3.5 13.5H1.486c-.276 0-.5.224-.5.5s.224.5.5.5H3.5c.276 0 .5-.224.5-.5s-.224-.5-.5-.5" transform="translate(4 3)"/>
        </g>
    </g>
</svg>
