<svg xmlns="http://www.w3.org/2000/svg" width="48" height="48" viewBox="0 0 48 48">
    <g fill="none" fill-rule="evenodd">
        <path d="M0 48L48 48 48 0 0 0z"/>
        <g fill="#607631">
            <path d="M15.614 29.612c.52.15.999.223 1.465.223.466 0 .945-.073 1.465-.223.233-.067.368-.311.3-.545-.033-.114-.108-.208-.213-.265-.1-.055-.218-.068-.33-.035-.878.253-1.563.254-2.442 0-.111-.034-.23-.02-.333.036-.104.057-.18.15-.213.264-.032.114-.019.232.037.335.057.103.15.177.264.21" transform="translate(6.947 1.263)"/>
            <path d="M33.228 23.199c-.238-.17-.518-.257-.82-.257l-.062.001c.368-1.782.624-3.561.762-5.289.383-4.808-.867-8.922-3.617-11.896C26.559 2.586 22.025.767 17.052.767c-1.246 0-2.36.122-2.997.239-.284-.15-.518-.285-.733-.425L13.27.547c-.113-.076-.267-.045-.346.069l-.334.49c-.038.055-.053.125-.04.193.014.067.054.125.11.161l.053.034c.862.566 1.803.991 2.582 1.166.855.193 1.28.606 1.457.835l.032.04c.074.096.203.125.316.07l.531-.278c.064-.034.11-.094.128-.165.016-.072.002-.146-.041-.205l-.042-.059c-.15-.209-.564-.698-1.353-1.046.273-.011.555-.019.73-.019 4.68 0 8.927 1.694 11.654 4.648 2.579 2.794 3.701 6.524 3.337 11.088-.157 1.966-.475 4.01-.944 6.081l-.05.271c-.018.092.006.186.066.258.059.072.15.115.243.115h.361c.07 0 .135-.023.193-.067l.057-.044c.22-.168.495-.218.641-.113.315.222.313 1.023-.004 1.992l-.363 1.114c-.187.578-.38 1.176-.62 1.886-.358 1.064-1 1.786-1.731 1.959l.014-.035.021-.049c.041-.094.082-.19.123-.29.029-.077.027-.164-.005-.24-.033-.075-.096-.137-.174-.168l-.41-.16c-.16-.06-.342.02-.405.176-1.77 4.445-3.984 7.807-6.97 10.58-1.61 1.496-3.177 1.803-5.035 1.803s-3.425-.307-5.036-1.804c-2.985-2.773-5.2-6.135-6.97-10.579-.063-.159-.241-.235-.407-.176l-.408.16c-.077.031-.14.093-.173.168-.033.076-.034.164-.003.242.043.109.088.214.134.319l.02.048c-.739-.174-1.366-.881-1.729-1.954-.252-.746-.459-1.39-.625-1.907l-.356-1.095c-.318-.968-.32-1.769-.005-1.991.153-.107.418-.056.664.13l.068.044c.056.034.126.054.186.047.154-.018.59-.06.617-.067.367-.09.728-.41.989-.873.414-.734.708-1.799 1.05-3.034.68-2.47 1.53-5.543 3.728-6.928 2.467-1.555 4.597-1.28 7.064-.962 2.379.306 5.072.653 8.572-.566l.03.02c.266 1.903 1.466 4.403 4.046 5.747.216.108.48.025.592-.187.055-.104.065-.223.03-.336-.035-.112-.112-.203-.217-.257-2.373-1.237-3.417-3.535-3.602-5.273-.014-.132-.09-.253-.202-.325l-.386-.246c-.117-.073-.256-.09-.385-.042-3.406 1.234-6.047.893-8.377.591-2.522-.323-4.905-.627-7.634 1.092-2.486 1.567-3.385 4.822-4.107 7.438-.325 1.178-.606 2.195-.968 2.836-.121.215-.242.33-.322.389-.428-1.95-.72-3.88-.869-5.738-.74-9.28 4.831-13.022 8.22-14.426l.019-.009c.414.18.802.312 1.155.392.855.192 1.28.605 1.457.835l.032.04c.073.095.204.124.315.07l.532-.278c.064-.035.11-.095.127-.165s.003-.145-.04-.206l-.042-.059c-.214-.297-.85-1.019-2.14-1.31-.653-.147-1.46-.514-2.214-1.007l-.052-.034c-.115-.075-.267-.046-.346.07l-.334.49c-.038.055-.053.124-.04.193.014.066.054.125.11.162l.053.033c.077.05.157.1.238.147C3.4 5.218.446 10.732.998 17.655c.136 1.711.392 3.49.762 5.288-.318-.01-.628.075-.882.255-.437.309-1.068 1.135-.393 3.195l.353 1.089c.19.589.387 1.197.63 1.92.68 2.01 2.044 2.727 3.095 2.727.038 0 .077-.003.118-.007 1.734 3.898 3.834 6.916 6.609 9.494 1.974 1.836 3.936 2.09 5.762 2.09 1.826 0 3.788-.254 5.763-2.09 2.775-2.578 4.876-5.596 6.609-9.494.04.004.08.007.119.007 1.05 0 2.415-.717 3.093-2.728.263-.779.474-1.431.651-1.982l.332-1.024c.677-2.062.046-2.888-.391-3.196" transform="translate(6.947 1.263)"/>
            <path d="M24.142 23.38c0-.55-.718-.998-1.6-.998-.88 0-1.597.447-1.597.998 0 .559.701.997 1.598.997.881 0 1.599-.447 1.599-.997M11.54 24.377c.882 0 1.6-.447 1.6-.997s-.718-.998-1.6-.998c-.882 0-1.599.447-1.599.998 0 .56.703.997 1.599.997M13.567 34.376h6.972c-.406.974-1.378 2.505-3.486 2.505-2.11 0-3.081-1.53-3.486-2.505m3.486 3.384c2.559 0 4.017-1.913 4.528-3.703.038-.132.011-.276-.072-.386-.083-.11-.214-.175-.35-.175h-8.211c-.138 0-.27.065-.352.175-.082.11-.109.254-.072.386.511 1.79 1.97 3.703 4.529 3.703M25.053 21.01c.044-.109.043-.228-.002-.336-.045-.109-.13-.193-.24-.237-.499-.202-1.297-.442-2.263-.442-.97 0-1.77.243-2.272.447-.225.09-.334.347-.243.572.068.167.227.275.407.275.059 0 .115-.011.165-.033.432-.174 1.119-.382 1.943-.382.827 0 1.508.206 1.934.378.222.09.48-.02.571-.243M13.478 21.256c.052.022.108.033.166.033.18 0 .34-.108.407-.275.044-.109.043-.228-.003-.336-.046-.108-.13-.192-.24-.237-.501-.203-1.303-.447-2.272-.447-.965 0-1.763.24-2.263.443-.11.044-.194.128-.24.236-.045.108-.047.228-.002.336.087.222.344.332.572.243.427-.172 1.11-.378 1.933-.378.826 0 1.511.208 1.942.382" transform="translate(6.947 1.263)"/>
        </g>
    </g>
</svg>
