<svg xmlns="http://www.w3.org/2000/svg" width="48" height="48" viewBox="0 0 48 48">
    <g fill="none" fill-rule="evenodd">
        <path d="M0 48L48 48 48 0 0 0z"/>
        <g fill="#573344">
            <path d="M22.763 20.682c1.048 0 1.901 1.163 1.901 2.592s-.853 2.591-1.9 2.591c-1.05 0-1.902-1.162-1.902-2.59 0-1.43.853-2.593 1.901-2.593m0 6.063c1.533 0 2.78-1.557 2.78-3.47 0-1.915-1.247-3.473-2.78-3.473-1.532 0-2.78 1.558-2.78 3.472s1.248 3.47 2.78 3.47M11.341 20.682c1.048 0 1.901 1.163 1.901 2.592s-.853 2.591-1.9 2.591c-1.05 0-1.902-1.162-1.902-2.59 0-1.43.853-2.593 1.901-2.593m0 6.063c1.533 0 2.78-1.557 2.78-3.47 0-1.915-1.247-3.473-2.78-3.473-1.533 0-2.78 1.558-2.78 3.472s1.247 3.47 2.78 3.47M13.438 38.11c.97-.535 2.27-.84 3.615-.84 1.344 0 2.645.305 3.614.84h-7.229zM11.9 39.856c.067-.299.216-.59.443-.866h9.422c.227.276.375.567.442.866H11.899zm8.496 2.627c-.938.452-2.113.699-3.342.699-1.23 0-2.405-.247-3.341-.7h6.683zm1.774-1.747c-.094.303-.27.595-.526.867h-9.181c-.255-.272-.431-.564-.526-.867H22.17zm-5.116 3.326c3.351 0 6.078-1.72 6.078-3.836 0-2.115-2.727-3.836-6.078-3.836-3.352 0-6.078 1.72-6.078 3.836 0 2.115 2.726 3.836 6.078 3.836z" transform="translate(6.947 1.263)"/>
            <path d="M10.855 36.782v-.001c.256-2.14 2.99-3.824 6.224-3.833 3.234.01 5.968 1.698 6.225 3.847.427 3.05.46 3.487.46 3.547 0 2.364-3 4.294-6.685 4.303-3.686-.009-6.685-1.94-6.685-4.303 0-.061.032-.498.461-3.56m6.223-21.486c5.05.007 9.128 2.143 10.15 5.314 1.197 3.725-1.382 9.431-4.482 13.459-1.346-1.245-3.448-1.994-5.641-2.006h-.053c-2.193.012-4.295.76-5.64 2.006-3.1-4.028-5.68-9.734-4.483-13.46 1.022-3.17 5.1-5.306 10.15-5.313m16.149 7.903c-.236-.168-.524-.257-.823-.257l-.059.001c.367-1.781.624-3.56.761-5.289.384-4.808-.866-8.922-3.616-11.896C26.559 2.586 22.025.767 17.053.767c-1.247 0-2.362.122-2.998.239-.282-.148-.516-.283-.733-.426L13.27.546c-.113-.074-.269-.043-.347.07l-.333.49c-.039.056-.053.125-.04.191.013.068.053.127.11.163l.053.034c.864.566 1.805.991 2.581 1.166.857.194 1.28.606 1.458.835l.033.042c.074.094.204.121.314.068l.532-.278c.064-.033.11-.094.127-.163.018-.072.004-.147-.04-.207l-.042-.059c-.15-.209-.564-.698-1.353-1.046.274-.012.555-.02.73-.02 4.68 0 8.927 1.695 11.654 4.649 2.578 2.793 3.7 6.524 3.337 11.089-.157 1.965-.475 4.01-.943 6.08l-.052.271c-.017.092.007.186.067.258.06.072.15.115.243.115h.361c.07 0 .135-.023.193-.066l.057-.045c.22-.168.495-.217.641-.113.315.222.312 1.023-.005 1.992 0 0-.748 2.307-.981 3-.36 1.064-1.001 1.786-1.732 1.959l.014-.035.021-.048c.041-.095.082-.19.123-.29.028-.078.027-.165-.005-.24-.033-.076-.096-.138-.175-.169l-.408-.16c-.16-.06-.341.019-.406.177-1.267 3.18-2.788 5.828-4.647 8.091-.065-.474-.14-1.03-.23-1.671-.082-.678-.36-1.332-.829-1.943 3.298-4.237 6.03-10.318 4.717-14.395-1.138-3.537-5.554-5.919-10.99-5.927-5.435.008-9.851 2.39-10.989 5.927-1.312 4.076 1.419 10.158 4.716 14.394-.468.613-.747 1.266-.826 1.94-.094.666-.173 1.24-.238 1.727-1.883-2.278-3.42-4.944-4.694-8.144-.066-.16-.244-.237-.407-.176l-.407.16c-.079.03-.142.093-.175.17-.032.075-.033.163-.003.24.046.116.095.228.143.34.004.009.009.018.012.028-.74-.174-1.367-.882-1.73-1.956-.239-.706-.98-3-.98-3-.319-.969-.32-1.77-.006-1.992.152-.107.417-.056.664.131l.067.043c.058.035.12.052.189.047.154-.011.594-.062.614-.067.368-.094.73-.41.99-.873.414-.734.708-1.8 1.05-3.033.68-2.47 1.53-5.543 3.728-6.93 2.467-1.555 4.598-1.28 7.065-.96 2.379.305 5.073.652 8.571-.567l.03.02c.267 1.903 1.467 4.403 4.046 5.747.216.108.481.025.592-.187.055-.104.065-.223.03-.336-.035-.111-.112-.203-.217-.257-2.373-1.237-3.416-3.535-3.602-5.273-.014-.132-.09-.254-.202-.326l-.386-.245c-.118-.073-.257-.09-.385-.042-3.407 1.234-6.048.893-8.377.591-2.522-.322-4.906-.627-7.635 1.092-2.484 1.567-3.384 4.822-4.11 7.45-.324 1.172-.604 2.185-.964 2.824-.12.216-.242.33-.322.39-.43-1.955-.721-3.885-.869-5.738-.74-9.281 4.832-13.023 8.22-14.427l.02-.008c.413.18.801.312 1.153.39.857.194 1.28.606 1.458.835l.032.04c.073.096.203.124.315.07l.532-.278c.064-.034.11-.094.127-.163.018-.071.003-.147-.04-.207l-.042-.058c-.213-.297-.847-1.02-2.14-1.31-.65-.147-1.458-.514-2.214-1.008l-.05-.033c-.113-.076-.269-.046-.349.068l-.333.49c-.039.056-.053.126-.04.193.013.067.053.126.11.162l.053.034c.078.051.159.1.238.147C3.4 5.218.446 10.732.998 17.655c.136 1.713.392 3.492.761 5.288-.317-.014-.628.076-.881.255-.437.309-1.07 1.135-.393 3.195 0 0 .742 2.29.984 3.009.679 2.01 2.043 2.727 3.093 2.727.04 0 .077-.003.12-.007 1.332 2.998 2.928 5.519 4.875 7.705-.032.282-.047.446-.047.515 0 2.841 3.383 5.168 7.543 5.188h.052c4.159-.02 7.542-2.347 7.542-5.188 0-.074-.016-.255-.054-.568 1.927-2.175 3.508-4.678 4.83-7.652.04.004.08.007.12.007 1.05 0 2.415-.716 3.093-2.728.263-.779.983-3.006.983-3.006.677-2.062.046-2.888-.391-3.196" transform="translate(6.947 1.263)"/>
        </g>
    </g>
</svg>
