<svg xmlns="http://www.w3.org/2000/svg" width="42" height="42" viewBox="0 0 42 42">
    <g fill="none" fill-rule="evenodd">
        <path d="M0 42L42 42 42 0 0 0z"/>
        <path fill="#DA3740" d="M34.111 20.13c.422-1.362 1.19-4.671 1.25-4.91.947-3.69 1.773-6.876 3.314-6.604.53.093.832.597.901 1.497.216 2.87-2.149 8.21-5.465 10.018M21.001 34c-5.99 0-11.039-8.672-12.973-17.194 3.021-.513 5.352-2.036 7.434-3.4C17.437 12.116 19.142 11 21 11c1.857 0 3.562 1.115 5.538 2.407 2.082 1.363 4.412 2.886 7.433 3.399C32.038 25.328 26.99 34 21.001 34M2.423 10.113c.068-.9.371-1.404.9-1.496 1.551-.286 2.367 2.914 3.314 6.604.061.238.828 3.547 1.25 4.91-3.316-1.808-5.68-7.147-5.464-10.018m38.148-.076c-.14-1.853-1.14-2.302-1.724-2.406-2.455-.431-3.34 2.999-4.456 7.342-.07.276-.145.563-.219.846-5.686-.95-8.878-5.82-13.173-5.82s-7.488 4.87-13.174 5.82c-.073-.283-.149-.57-.219-.846C6.492 10.629 5.614 7.2 3.15 7.63c-.583.104-1.583.553-1.723 2.406-.26 3.458 2.707 9.865 6.872 11.376C10.925 28.979 15.627 35 21 35s10.074-6.021 12.7-13.587c4.165-1.511 7.134-7.918 6.872-11.376"/>
        <path fill="#DA3740" d="M26.307 19.006H15.694c-.278 0-.5.224-.5.5s.222.5.5.5h10.613c.277 0 .5-.224.5-.5s-.223-.5-.5-.5M26.307 22.287H15.694c-.278 0-.5.223-.5.5 0 .275.222.5.5.5h10.613c.277 0 .5-.225.5-.5 0-.277-.223-.5-.5-.5M26.307 25.568H15.694c-.278 0-.5.223-.5.5 0 .275.222.5.5.5h10.613c.277 0 .5-.225.5-.5 0-.277-.223-.5-.5-.5"/>
    </g>
</svg>
