<svg xmlns="http://www.w3.org/2000/svg" width="42" height="42" viewBox="0 0 42 42">
    <g fill="#DA3740" fill-rule="evenodd">
        <path d="M31.5 36.25c-3.584 0-6.5-2.916-6.5-6.5s2.916-6.5 6.5-6.5 6.5 2.916 6.5 6.5-2.916 6.5-6.5 6.5m0-14c-4.143 0-7.5 3.357-7.5 7.5s3.357 7.5 7.5 7.5 7.5-3.357 7.5-7.5-3.357-7.5-7.5-7.5"/>
        <path d="M30.795 33.18c-1.482-.305-2.596-1.518-2.771-3.02-.032-.273-.278-.472-.555-.437-.274.032-.471.28-.438.555.225 1.93 1.658 3.49 3.563 3.88.033.008.067.01.1.01.233 0 .44-.162.49-.398.055-.271-.12-.535-.39-.59M14.02 19.287c-.226-.12-.322-.385-.23-.63 1.363-3.663 5.686-7.93 9.43-8.158.245-.015.444.142.508.368l1.487 5.21-5.99 5.99-5.206-2.78zm15.168-8.059c-1.378 0-2.5-1.12-2.5-2.5 0-1.378 1.122-2.5 2.5-2.5 1.379 0 2.5 1.122 2.5 2.5 0 .435-.121.837-.316 1.194l-.991.99c-.357.195-.759.316-1.194.316zM17 29.75c0 3.584-2.916 6.5-6.5 6.5-1.162 0-2.252-.31-3.197-.847l1.494-1.493c.255.104.52.191.796.248.034.008.069.011.101.011.232 0 .44-.163.49-.4.056-.27-.12-.535-.39-.589-.072-.015-.136-.04-.207-.06l6.567-6.566c.535.945.846 2.034.846 3.196zm-13 0c0-3.584 2.915-6.5 6.5-6.5 2.057 0 3.89.964 5.082 2.46l-6.975 6.975c-.86-.553-1.458-1.462-1.583-2.524-.032-.274-.274-.474-.556-.438-.272.032-.47.28-.436.554.15 1.291.846 2.406 1.856 3.127l-1.428 1.43C4.963 33.64 4 31.807 4 29.75zM41.852.146c-.195-.195-.511-.195-.706 0l-8.47 8.47c-.062-1.876-1.598-3.388-3.49-3.388-1.93 0-3.5 1.571-3.5 3.5 0 1.892 1.512 3.428 3.389 3.49l-3.05 3.05-1.337-4.676c-.192-.675-.838-1.129-1.53-1.09-4.116.25-8.836 4.855-10.307 8.806-.264.708.037 1.508.697 1.86l4.939 2.638-2.19 2.188c-1.375-1.675-3.461-2.744-5.798-2.744-4.143 0-7.5 3.357-7.5 7.5 0 2.337 1.07 4.423 2.745 5.8L.146 41.145c-.194.196-.194.512 0 .707.099.098.227.147.353.147.128 0 .256-.049.355-.147l5.721-5.72c1.143.704 2.484 1.117 3.924 1.117 4.143 0 7.5-3.358 7.5-7.5 0-1.442-.412-2.782-1.117-3.925l2.526-2.526 1.822.972c.2.107.3.328.247.552l-1.4 5.988c-.064.27.104.54.373.601.038.01.078.014.114.014.227 0 .433-.157.486-.387l1.4-5.988c.155-.66-.153-1.344-.748-1.662l-1.555-.83 5.538-5.537c.277.288.652.478 1.069.478h6.756c.276 0 .5-.224.5-.5s-.224-.5-.5-.5h-6.756c-.148 0-.267-.08-.36-.188l4.604-4.602c.479-.292.878-.693 1.17-1.172L41.854.853c.195-.195.195-.51 0-.707z"/>
    </g>
</svg>
