<svg xmlns="http://www.w3.org/2000/svg" xmlns:xlink="http://www.w3.org/1999/xlink" width="42" height="42" viewBox="0 0 42 42">
    <defs>
        <path id="prefix__a" d="M0 0L42 0 42 42 0 42z"/>
    </defs>
    <g fill="none" fill-rule="evenodd">
        <path d="M0 0H42V42H0z"/>
        <mask id="prefix__b" fill="#fff">
            <use xlink:href="#prefix__a"/>
        </mask>
        <path fill="#DA3740" d="M36 20.5h-7v-6.793l7-7V20.5zm0 15.632l-7-4.667V21.5h7v14.632zM14.05 30.95v-2.293l13.9-13.9V30.95h-13.9zm-6.323 4.03L13 29.707v1.758L7.727 34.98zM6.002 21.5H13v6.793l-7 7L6.002 21.5zm.003-15.629L13 10.535V20.5H6.002l.003-14.629zM27.95 11.05v2.293l-13.9 13.9V11.05h13.9zm6.322-4.029L29 12.293v-1.758l5.272-3.514zM41.854.146c-.196-.195-.512-.195-.708 0l-4.791 4.791c-.113-.043-.234-.07-.358-.07-.185 0-.377.053-.552.169L28 10H14L6.555 5.036c-.175-.116-.367-.169-.552-.169C5.482 4.867 5 5.28 5 5.868v30.264c0 .048.021.087.027.134l-4.881 4.88c-.195.196-.195.512 0 .708.098.097.226.146.354.146.128 0 .256-.049.354-.146l4.791-4.792c.113.044.234.071.358.071.185 0 .377-.053.552-.169L14 32h14l7.445 4.964c.175.116.367.169.552.169.521 0 1.003-.413 1.003-1.001V5.868c0-.048-.021-.087-.027-.134l4.881-4.88c.195-.196.195-.512 0-.708z" mask="url(#prefix__b)"/>
    </g>
</svg>
