<svg xmlns="http://www.w3.org/2000/svg" width="42" height="42" viewBox="0 0 42 42">
    <g fill="none" fill-rule="evenodd">
        <path d="M0 42L42 42 42 0 0 0z"/>
        <path fill="#72AA29" d="M31.5 22.25c-4.143 0-7.5 3.357-7.5 7.5s3.357 7.5 7.5 7.5 7.5-3.357 7.5-7.5-3.357-7.5-7.5-7.5m0 1c3.584 0 6.5 2.916 6.5 6.5s-2.916 6.5-6.5 6.5-6.5-2.916-6.5-6.5 2.916-6.5 6.5-6.5"/>
        <path fill="#72AA29" d="M30.694 34.169c-.033 0-.067-.003-.1-.011-1.906-.39-3.338-1.95-3.563-3.881-.033-.274.164-.522.437-.554.278-.035.524.164.555.438.176 1.5 1.29 2.714 2.772 3.019.27.054.444.319.388.59-.049.236-.257.399-.489.399M29.188 6.229c-1.378 0-2.5 1.122-2.5 2.5 0 1.379 1.122 2.5 2.5 2.5 1.379 0 2.5-1.121 2.5-2.5 0-1.378-1.121-2.5-2.5-2.5m0 6c-1.93 0-3.5-1.57-3.5-3.5s1.57-3.5 3.5-3.5 3.5 1.57 3.5 3.5-1.57 3.5-3.5 3.5"/>
        <path fill="#72AA29" d="M20.564 31.426c-.037 0-.076-.005-.113-.014-.27-.062-.438-.332-.373-.6l1.399-5.99c.052-.222-.047-.444-.247-.55l-7.681-4.104c-.66-.351-.961-1.152-.697-1.86 1.47-3.95 6.192-8.557 10.308-8.807.69-.038 1.337.416 1.53 1.09l1.583 5.547c.061.214.26.362.48.362h6.757c.276 0 .5.224.5.5 0 .277-.224.5-.5.5h-6.756c-.667 0-1.259-.447-1.442-1.088l-1.585-5.545c-.064-.226-.262-.382-.506-.368-3.745.228-8.069 4.495-9.431 8.158-.092.246.005.509.23.63l7.681 4.102c.596.318.904 1.002.75 1.662l-1.4 5.988c-.053.23-.26.387-.486.387"/>
        <path fill="#72AA29" d="M10.5 22.25c-4.143 0-7.5 3.357-7.5 7.5s3.357 7.5 7.5 7.5 7.5-3.357 7.5-7.5-3.357-7.5-7.5-7.5m0 1c3.584 0 6.5 2.916 6.5 6.5s-2.916 6.5-6.5 6.5S4 33.334 4 29.75s2.916-6.5 6.5-6.5"/>
        <path fill="#72AA29" d="M9.694 34.169c-.033 0-.067-.003-.1-.011-1.906-.39-3.338-1.95-3.563-3.881-.033-.274.164-.522.437-.554.282-.035.524.164.555.438.176 1.5 1.29 2.714 2.772 3.019.27.054.444.319.388.59-.049.236-.257.399-.489.399"/>
    </g>
</svg>
