<svg xmlns="http://www.w3.org/2000/svg" width="48" height="48" viewBox="0 0 48 48">
    <g fill="none" fill-rule="evenodd">
        <path d="M0 48L48 48 48 0 0 0z"/>
        <g fill="#974A20">
            <path d="M15.904 36.324c-.243 0-.44.197-.44.44 0 .242.197.44.44.44h2.298c.242 0 .439-.198.439-.44 0-.243-.197-.44-.44-.44h-2.297zM15.614 29.612c.52.15.999.223 1.465.223.467 0 .945-.073 1.465-.223.233-.067.368-.311.3-.545-.033-.114-.108-.208-.213-.265-.101-.055-.22-.068-.33-.035-.88.254-1.564.254-2.442 0-.111-.034-.23-.021-.332.036-.105.057-.181.15-.213.264-.033.112-.02.232.037.335.057.103.15.178.263.21M20.994 35.964c.135 0 .26-.06.343-.164.074-.092.108-.207.094-.323-.012-.117-.069-.222-.16-.295-1.154-.93-2.522-1.402-4.065-1.402-1.544 0-2.911.472-4.066 1.401-.091.074-.149.179-.16.295-.014.117.02.232.094.324s.18.15.297.161c.115.012.23-.022.32-.094.994-.8 2.176-1.206 3.515-1.206 1.338 0 2.52.405 3.513 1.206.08.063.175.097.275.097M25.075 21.437c.117-.015.22-.076.291-.169.072-.093.102-.208.088-.324-.03-.22-.222-.381-.444-.381l-.051.003c-1.572.206-3.239-.339-4.356-1.427-.172-.168-.451-.164-.62.008-.083.084-.128.196-.126.312.001.118.049.228.133.31 1.104 1.077 2.713 1.72 4.306 1.72.26 0 .522-.018.779-.052M14.108 19.147c-.083-.085-.193-.132-.315-.133-.116 0-.224.044-.306.125-1.118 1.09-2.79 1.637-4.356 1.427-.238-.034-.46.134-.494.378-.031.24.14.46.379.493.257.034.52.052.78.052 1.59 0 3.201-.644 4.306-1.72.173-.17.176-.449.006-.622M24.142 23.38c0-.55-.718-.998-1.6-.998-.88 0-1.597.447-1.597.998 0 .559.701.997 1.598.997.881 0 1.599-.447 1.599-.997M11.54 24.377c.882 0 1.6-.447 1.6-.997s-.718-.998-1.6-.998c-.881 0-1.597.447-1.597.998 0 .56.7.997 1.597.997" transform="translate(6.947 1.263)"/>
            <path d="M33.228 23.199c-.254-.181-.561-.271-.882-.256.368-1.782.624-3.56.762-5.289.383-4.808-.867-8.922-3.617-11.896C26.559 2.586 22.025.767 17.053.767c-1.247 0-2.362.122-2.998.239-.282-.148-.516-.283-.733-.425L13.27.546c-.112-.074-.268-.044-.346.07l-.334.49c-.039.056-.054.126-.039.192.013.067.053.126.11.162l.052.034c.862.566 1.803.991 2.58 1.166.858.194 1.282.606 1.459.835l.033.042c.075.095.2.122.314.068l.532-.278c.064-.034.11-.094.127-.164s.003-.145-.04-.206l-.042-.059c-.15-.209-.564-.698-1.353-1.046.274-.011.555-.019.73-.019 4.68 0 8.927 1.694 11.654 4.648 2.579 2.794 3.701 6.524 3.337 11.088-.157 1.966-.475 4.01-.944 6.081l-.05.271c-.018.092.006.186.066.258.059.072.15.115.243.115h.361c.07 0 .135-.023.193-.067l.057-.044c.22-.168.494-.218.641-.113.315.222.313 1.023-.004 1.992 0 0-.742 2.29-.982 3-.36 1.064-1.001 1.786-1.732 1.959l.014-.035.021-.049c.041-.094.082-.19.123-.29.029-.077.027-.164-.005-.24-.033-.075-.096-.137-.174-.168l-.41-.16c-.16-.06-.342.02-.405.176-1.77 4.445-3.984 7.807-6.97 10.58-1.61 1.496-3.177 1.803-5.035 1.803s-3.425-.307-5.035-1.804c-2.986-2.772-5.2-6.134-6.97-10.579-.064-.16-.242-.237-.407-.176l-.408.16c-.078.03-.141.092-.174.17-.032.075-.033.163-.002.24.046.117.094.228.142.34.005.01.009.018.012.028-.74-.174-1.366-.882-1.73-1.956-.239-.706-.981-3-.981-3-.318-.969-.32-1.77-.005-1.992.153-.108.417-.056.664.13l.067.044c.057.034.119.054.189.047.153-.016.594-.062.615-.067.368-.094.729-.41.989-.873.413-.734.708-1.8 1.05-3.033.68-2.47 1.53-5.543 3.728-6.93 2.467-1.555 4.598-1.28 7.064-.961 2.378.306 5.073.653 8.572-.566l.03.02c.266 1.903 1.466 4.403 4.046 5.747.216.11.481.026.592-.187.055-.104.065-.223.03-.336-.035-.112-.112-.203-.217-.257-2.373-1.237-3.417-3.535-3.602-5.273-.014-.132-.09-.253-.202-.325l-.386-.246c-.117-.073-.257-.09-.385-.042-3.407 1.234-6.048.893-8.377.591-2.522-.322-4.904-.627-7.635 1.092-2.484 1.567-3.384 4.822-4.11 7.45-.324 1.172-.604 2.185-.964 2.824-.121.216-.242.33-.322.39-.429-1.955-.721-3.885-.869-5.739-.74-9.28 4.832-13.022 8.22-14.426l.019-.008c.414.18.802.312 1.154.39.857.194 1.28.606 1.458.836l.032.04c.072.095.203.124.315.07l.53-.278c.065-.033.111-.093.129-.164.018-.071.004-.147-.04-.207l-.042-.058c-.213-.297-.847-1.019-2.14-1.311-.65-.146-1.458-.513-2.214-1.007l-.05-.033c-.112-.077-.269-.047-.349.068l-.333.49c-.038.056-.054.125-.04.193.013.066.053.125.11.163l.053.033c.078.05.159.1.238.147C3.4 5.218.446 10.732.998 17.655c.137 1.714.392 3.492.761 5.288-.319-.017-.629.076-.881.255-.437.309-1.07 1.135-.393 3.195 0 0 .742 2.29.984 3.009.679 2.01 2.043 2.727 3.093 2.727.04 0 .077-.003.12-.007 1.733 3.899 3.833 6.917 6.608 9.494 1.975 1.836 3.936 2.09 5.762 2.09 1.826 0 3.788-.254 5.763-2.09 2.774-2.577 4.875-5.596 6.609-9.494.039.004.08.007.119.007 1.05 0 2.415-.717 3.093-2.728.263-.779.983-3.006.983-3.006.677-2.062.045-2.888-.391-3.196" transform="translate(6.947 1.263)"/>
        </g>
    </g>
</svg>
