<svg xmlns="http://www.w3.org/2000/svg" width="48" height="48" viewBox="0 0 48 48">
    <g fill="none" fill-rule="evenodd">
        <path d="M0 48L48 48 48 0 0 0z"/>
        <g fill="#942431">
            <path d="M25.18 20.458c0-.242-.197-.44-.438-.44h-4.396c-.243 0-.44.198-.44.44 0 .243.197.44.44.44h4.396c.241 0 .438-.197.438-.44M20.945 23.38c0 .56.701.997 1.597.997.883 0 1.6-.447 1.6-.997s-.717-.999-1.6-.999c-.88 0-1.597.449-1.597 1M14.178 20.458c0-.242-.197-.44-.44-.44H9.344c-.242 0-.44.198-.44.44 0 .243.198.44.44.44h4.396c.242 0 .439-.197.439-.44M9.942 23.38c0 .56.701.997 1.598.997.882 0 1.6-.447 1.6-.997s-.718-.999-1.6-.999c-.88 0-1.598.449-1.598 1M20.758 32.439h-7.41c-.243 0-.44.197-.44.44s.197.44.44.44h7.41c.243 0 .44-.197.44-.44s-.197-.44-.44-.44M20.758 34.65h-7.41c-.243 0-.44.198-.44.44 0 .243.197.44.44.44h7.41c.243 0 .44-.197.44-.44 0-.242-.197-.44-.44-.44M20.758 36.863h-7.41c-.243 0-.44.197-.44.44 0 .242.197.44.44.44h7.41c.243 0 .44-.198.44-.44 0-.243-.197-.44-.44-.44" transform="translate(6.947 1.263)"/>
            <path d="M4.54 31.074c-.14-.015-.257-.036-.35-.06l-.026-.008c-.423-.116-1.203-.521-1.683-1.945-.25-.74-.453-1.371-.634-1.927L1.5 26.06c-.317-.969-.32-1.77-.005-1.992.052-.037.121-.055.198-.055.14 0 .305.059.441.168.096.075.12.132.126.151.479 1.84 1.23 4.11 2.009 6.075l.273.666zm12.513 11.564c-1.859 0-3.426-.307-5.036-1.803-2.594-2.41-4.573-5.224-6.226-8.852.528-.025 1.255-.146 2.272-.732.932-.536 1.775-1.073 2.59-1.594l.049-.03c2.356-1.505 4.216-2.693 6.35-2.694 2.135.001 3.996 1.189 6.356 2.696.827.528 1.682 1.074 2.634 1.622 1.018.586 1.745.707 2.272.732-1.653 3.629-3.632 6.443-6.225 8.852-1.61 1.496-3.178 1.803-5.036 1.803zm15.554-16.576l-.349 1.072c-.18.557-.383 1.187-.633 1.927-.48 1.424-1.26 1.83-1.687 1.947l-.019.006c-.094.025-.213.045-.354.06l.272-.666c.78-1.965 1.531-4.234 2.008-6.07.015-.047.058-.1.128-.156.132-.105.296-.168.44-.168.078 0 .147.02.198.056.315.222.312 1.022-.004 1.992zm.62-2.863c-.25-.18-.563-.268-.881-.256.367-1.781.624-3.56.761-5.29.384-4.807-.866-8.921-3.616-11.895-2.932-3.172-7.466-4.99-12.438-4.99-1.247 0-2.362.122-2.998.238-.282-.148-.516-.284-.733-.425L13.27.547c-.113-.075-.269-.045-.347.068l-.333.491c-.039.055-.053.125-.04.192.013.067.053.127.11.163l.053.034c.862.566 1.804.99 2.581 1.166.857.192 1.28.605 1.458.834l.033.042c.073.094.202.123.314.068l.532-.278c.064-.034.11-.094.127-.164s.003-.145-.04-.206l-.042-.058c-.15-.21-.564-.698-1.353-1.048.274-.01.556-.018.73-.018 4.68 0 8.927 1.694 11.654 4.648 2.579 2.793 3.702 6.524 3.337 11.09-.162 2.018-.479 4.062-.942 6.074-.467 2.023-1.541 5.224-2.505 7.466h-.037c-.62 0-1.197-.113-2.08-.623-.944-.543-1.787-1.081-2.605-1.604-2.376-1.517-4.428-2.828-6.826-2.831-2.388.002-4.442 1.313-6.82 2.832-.817.522-1.66 1.06-2.604 1.604-.882.507-1.476.622-2.08.622H5.51c-.866-2.011-1.816-4.778-2.379-6.92.332-.12.653-.424.888-.84.414-.736.708-1.8 1.05-3.034.68-2.47 1.53-5.543 3.728-6.93 2.467-1.555 4.598-1.28 7.065-.961 2.377.306 5.07.653 8.571-.566l.03.02c.267 1.903 1.467 4.403 4.046 5.747.216.109.48.025.592-.187.055-.103.065-.223.03-.336-.035-.112-.112-.203-.217-.257-2.373-1.237-3.416-3.536-3.602-5.273-.014-.132-.09-.253-.202-.325l-.386-.245c-.116-.074-.256-.09-.385-.043-3.407 1.234-6.047.892-8.377.59-2.522-.321-4.905-.627-7.635 1.094-2.485 1.566-3.384 4.822-4.11 7.448-.324 1.173-.604 2.186-.964 2.825-.122.216-.242.33-.322.39-.429-1.952-.721-3.882-.87-5.738-.74-9.28 4.833-13.022 8.22-14.428l.02-.007c.414.18.802.311 1.154.39.857.194 1.281.606 1.458.836l.032.04c.073.095.203.124.315.07l.53-.278c.065-.033.111-.093.129-.164.018-.071.004-.147-.04-.206l-.042-.06c-.213-.296-.847-1.018-2.14-1.31-.65-.146-1.458-.513-2.214-1.007l-.05-.033c-.113-.076-.269-.047-.349.068l-.333.49c-.038.055-.053.126-.04.193.013.066.053.125.11.162l.053.034c.078.051.159.1.238.147C3.4 5.218.446 10.732.998 17.654c.136 1.714.392 3.493.761 5.29-.316-.012-.628.075-.881.254-.437.31-1.07 1.135-.393 3.195 0 0 .722 2.232.984 3.01.679 2.01 2.043 2.726 3.093 2.726.04 0 .078-.003.12-.007 1.735 3.9 3.835 6.919 6.608 9.496 1.975 1.834 3.937 2.088 5.763 2.088 1.825 0 3.788-.254 5.763-2.09 2.772-2.576 4.873-5.594 6.608-9.494.04.004.079.007.12.007 1.05 0 2.414-.716 3.092-2.727.26-.77.983-3.007.983-3.007.677-2.062.045-2.887-.391-3.196z" transform="translate(6.947 1.263)"/>
        </g>
    </g>
</svg>
