<svg xmlns="http://www.w3.org/2000/svg" width="48" height="48" viewBox="0 0 48 48">
    <g fill="none" fill-rule="evenodd">
        <path d="M0 48L48 48 48 0 0 0z"/>
        <g fill="#543B63">
            <path d="M16.992 37.511c-1.157 0-2.1-.942-2.1-2.099 0-1.156.943-2.098 2.1-2.098s2.098.942 2.098 2.098c0 1.157-.941 2.099-2.098 2.099m0-5.076c-1.643 0-2.978 1.336-2.978 2.977 0 1.642 1.335 2.979 2.978 2.979 1.642 0 2.977-1.337 2.977-2.979 0-1.641-1.335-2.977-2.977-2.977" transform="translate(6.947 1.263)"/>
            <path d="M16.992 39.062c-2.013 0-3.65-1.637-3.65-3.65 0-2.011 1.637-3.648 3.65-3.648 2.012 0 3.649 1.637 3.649 3.648 0 2.013-1.637 3.65-3.65 3.65m0-8.178c-2.497 0-4.528 2.032-4.528 4.528 0 2.498 2.031 4.53 4.529 4.53 2.497 0 4.528-2.032 4.528-4.53 0-2.496-2.031-4.528-4.528-4.528" transform="translate(6.947 1.263)"/>
            <path d="M30.833 35.621c.003.011.002.023-.003.031l-4.595 8.904c-.01.02-.035.027-.055.018l-.968-.5 4.633-8.976.967.5c.01.005.017.013.02.022v.001zM3.31 35.597l.969-.498 4.632 8.976-.967.498c-.019.01-.046.002-.055-.017l-4.596-8.902c-.005-.01-.005-.022-.003-.033.004-.013.013-.02.02-.024zm4.642-1.908c.378.121.684.381.866.732l3.274 6.345c.182.35.215.752.095 1.129s-.38.685-.731.865l-1.764.911-4.633-8.976 1.764-.91c.347-.179.76-.214 1.13-.096zm13.05 7.98c-1.363.85-2.704.969-3.95.969-1.24 0-2.575-.117-3.934-.96.048-.46-.036-.914-.244-1.315l-3.275-6.344c-.022-.044-.05-.084-.078-.126 2.14-3.972 5.74-6.939 7.541-6.942 1.801.003 5.402 2.97 7.541 6.941-.027.04-.056.082-.079.126l-3.275 6.345c-.206.4-.291.85-.247 1.305zm5.62-8.05c.237 0 .465.056.678.166l1.764.91-4.633 8.976-1.764-.91c-.724-.375-1.01-1.27-.637-1.995l3.276-6.345c.18-.35.487-.61.864-.732.147-.046.3-.07.453-.07zm6.606-10.42c-.251-.18-.56-.27-.882-.256.368-1.782.624-3.56.762-5.29.383-4.808-.868-8.921-3.617-11.896-2.932-3.17-7.466-4.99-12.438-4.99-1.247 0-2.362.122-2.998.238-.282-.147-.516-.283-.733-.424L13.27.547c-.113-.075-.267-.044-.346.069l-.334.49c-.039.055-.054.125-.04.191.013.068.053.127.11.164l.053.033c.862.566 1.803.991 2.58 1.167.858.192 1.282.605 1.459.834l.033.042c.073.094.202.123.314.068l.532-.277c.064-.035.11-.095.127-.165s.003-.145-.04-.206l-.042-.059c-.15-.209-.564-.698-1.353-1.046.274-.012.555-.02.73-.02 4.68 0 8.927 1.695 11.654 4.65 2.579 2.792 3.701 6.523 3.337 11.088-.157 1.965-.475 4.01-.944 6.08l-.05.27c-.018.093.006.188.066.259.059.073.147.115.243.115h.361c.07 0 .135-.023.193-.066l.057-.044c.22-.169.493-.219.641-.115.315.223.313 1.024-.004 1.994 0 0-.732 2.258-.982 2.998-.36 1.064-1 1.787-1.732 1.96l.015-.037c.047-.11.096-.22.143-.336.03-.08.028-.164-.005-.24-.033-.076-.096-.137-.174-.169l-.41-.16c-.16-.06-.342.02-.405.177-.38.956-.792 1.876-1.25 2.8l-.103-.052c-.561-.29-1.2-.344-1.8-.151-.246.078-.475.194-.68.345-.966-1.708-2.354-3.452-3.817-4.795-1.633-1.5-3.177-2.328-4.348-2.331-1.165.003-2.707.831-4.341 2.331-1.463 1.344-2.85 3.088-3.817 4.796-.206-.152-.435-.268-.682-.346-.6-.192-1.24-.139-1.799.15l-.107.056-.022-.028c-.466-.935-.872-1.843-1.244-2.775-.064-.16-.242-.238-.407-.177l-.409.16c-.077.032-.14.093-.173.168-.033.077-.034.162-.003.242.039.098.08.191.12.285l.018.045.017.038c-.74-.174-1.366-.881-1.73-1.956-.238-.706-.981-3-.981-3-.318-.969-.32-1.769-.005-1.992.152-.108.417-.055.664.131l.067.042c.057.036.12.053.189.048.154-.011.593-.062.615-.067.368-.092.729-.41.989-.872.414-.736.708-1.8 1.05-3.034.68-2.47 1.53-5.543 3.728-6.929 2.467-1.556 4.598-1.28 7.064-.962 2.378.306 5.073.653 8.572-.566l.03.02c.266 1.903 1.466 4.403 4.046 5.747.215.11.482.025.592-.187.055-.104.065-.223.03-.336-.035-.112-.112-.203-.217-.257-2.373-1.237-3.417-3.535-3.602-5.274-.014-.13-.09-.253-.202-.324l-.386-.246c-.116-.073-.257-.09-.385-.042-3.406 1.234-6.046.892-8.377.591-2.522-.322-4.904-.627-7.635 1.093-2.485 1.566-3.384 4.821-4.11 7.448-.324 1.173-.604 2.186-.964 2.825-.122.217-.245.333-.322.39-.43-1.956-.721-3.886-.87-5.738-.74-9.28 4.833-13.022 8.22-14.427l.02-.009c.414.181.802.312 1.154.392.857.193 1.28.606 1.458.834l.032.041c.073.095.203.123.315.07l.53-.278c.065-.033.111-.093.129-.164.018-.071.004-.147-.04-.206l-.042-.059c-.213-.297-.847-1.019-2.14-1.311-.65-.147-1.458-.514-2.214-1.007l-.051-.033c-.112-.076-.268-.046-.348.068l-.333.49c-.038.056-.054.126-.04.193.013.066.053.125.11.163l.053.032c.078.052.159.101.238.148C3.4 5.22.446 10.732.998 17.654c.137 1.714.392 3.494.761 5.29-.319-.019-.629.075-.881.254-.437.31-1.07 1.135-.393 3.195 0 0 .722 2.232.984 3.009.679 2.01 2.043 2.727 3.093 2.727.04 0 .077-.003.118-.007.18.405.375.818.594 1.26L2.82 34.649c-.543.28-.757.951-.477 1.495l4.596 8.904c.192.37.57.6.987.6.178 0 .348-.042.507-.124l3.512-1.814c.405-.207.744-.52.986-.903 1.457.79 2.841.9 4.121.9 1.222 0 2.666-.11 4.134-.908.241.387.583.701.992.911l3.512 1.814c.156.081.332.124.507.124.417 0 .796-.23.987-.6l4.595-8.904c.28-.543.067-1.213-.476-1.495l-2.469-1.273c.213-.43.406-.841.59-1.253.039.004.079.007.119.007 1.05 0 2.415-.716 3.093-2.727.26-.77.983-3.007.983-3.007.677-2.062.045-2.888-.391-3.196z" transform="translate(6.947 1.263)"/>
            <path d="M25.18 20.459c0-.243-.197-.44-.438-.44h-4.396c-.243 0-.44.197-.44.44 0 .242.197.44.44.44h4.396c.241 0 .438-.198.438-.44M20.945 23.38c0 .56.701.997 1.597.997.883 0 1.6-.447 1.6-.997s-.717-.998-1.6-.998c-.88 0-1.597.448-1.597.998M14.178 20.459c0-.243-.197-.44-.44-.44H9.344c-.242 0-.44.197-.44.44 0 .242.198.44.44.44h4.396c.242 0 .439-.198.439-.44M9.942 23.38c0 .56.701.997 1.598.997.882 0 1.6-.447 1.6-.997s-.718-.998-1.6-.998c-.88 0-1.598.448-1.598.998" transform="translate(6.947 1.263)"/>
        </g>
    </g>
</svg>
