<svg xmlns="http://www.w3.org/2000/svg" width="42" height="42" viewBox="0 0 42 42">
    <g fill="none" fill-rule="evenodd">
        <path d="M0 42L42 42 42 0 0 0z"/>
        <path fill="#72AA29" d="M36 20.498h-7v-9.965l7-4.666v14.631zm0 15.631l-7-4.666v-9.965h7v14.631zm-21.95-5.181h13.9v-19.9h-13.9v19.9zM6 36.129l.002-14.631H13v9.965l-7 4.666zm.005-30.26L13 10.533v9.965H6.002l.003-14.629zm29.992-1.005c-.185 0-.377.054-.552.17L28 9.998H14L6.555 5.034c-.175-.116-.367-.17-.552-.17C5.482 4.864 5 5.278 5 5.866v30.263c0 .589.482 1.002 1.003 1.002.185 0 .377-.053.552-.17L14 31.998h14l7.445 4.963c.175.117.367.17.552.17.521 0 1.003-.413 1.003-1.002V5.866c0-.588-.482-1.002-1.003-1.002z"/>
    </g>
</svg>
